<?xml version="1.0" encoding="UTF-8"?>
<!DOCTYPE svg PUBLIC "-//W3C//DTD SVG 1.1//EN" "http://www.w3.org/Graphics/SVG/1.1/DTD/svg11.dtd">
<svg xmlns="http://www.w3.org/2000/svg" xmlns:xlink="http://www.w3.org/1999/xlink" width="503px" height="303px" version="1.1" 
content="%3Cmxfile%20type%3D%22device%22%20userAgent%3D%22Mozilla%2F5.0%20(Windows%20NT%2010.0%3B%20WOW64)%20AppleWebKit%2F537.36%20(KHTML%2C%20like%20Gecko)%20Chrome%2F47.0.2526.106%20Safari%2F537.36%22%20version%3D%225.2.7.1%22%20editor%3D%22www.draw.io%22%3E%3Cdiagram%3E7V1Nc%2BMoE%2F41Pm7KsuSvYzKTmT3sW5WqHHb39JZiE1s7snFJ5Gt%2B%2FQCiZalxxjIWmBnigy0hhET3Q9M8NHgQf9q8fi3S3fp%2FdEnywWi4fB3EnwejUZTECf8RKW9VynQ2rBJWRbZUmfYJ99l3ohIh21O2JGUrI6M0Z9munbig2y1ZsFZaWhT0pZ3tkebtp%2B7SFTxxn3C%2FSHM99e9sydZV6mSoXk%2Bk%2F0my1Vo9OR6pCw%2Fp4tuqoE9b9bjBKH6Un%2BryJoWiZP74lsuwoJSXIo42r59ILuQIIqoK%2FfLO1fodC7JV79G6gT78J0QzGubpA1ePeh8p3ZSpeg4%2BDwfXkfi%2BGctvmSKOowFXmTj%2BLI9vVDp%2FxD7bbSNbdVylK2HAi8Z1Xes6lOwNRC2lRUTWaBDfvKwzRu536UJcfeHg4mlrthGvLy5XBT%2BTghHAmi4FmaSe95XQDWHFG8%2Bibojn8n1GQwVNUN3LXs%2BxSlo3VazSUoWsVV3wXuL8QNUQTpUODitQtZHnNH8CdciEhnDIdnkt4MzPFnlaltmCC6FkacH0ZE1MZKmB%2FKiQGlIYH5ACpBUkT1n23C7%2BkGjUE%2B5oxh%2B818G0rYMpEm5Jn4oFUTc1mwAuB%2BkSXg%2FK4YJaEaaVI%2FVUV%2FqQ6jRdTY7ryjmQk8NC7B%2FImjSm4SI3agt9xk2iEXKR8nA5%2FSF35h9yR7OLIXceLHJH436Qi5VnD7mR0o1X0K28mUtAFyxPiNiNlRU701%2FA5djzFyIPHQaMXXuery6OcD2G0bAt9QjEfjJ4kfoiGI1aQK%2BHTkM0VU0Ky9EBfKH6AcI3GiOxY9R1he%2B7%2BusfvtBQvIJvfDHHIWCiIUIEgbHx1QqyZ3xHyqH22fi6RG8HT%2Bq3Ra%2B65Uy3F5djz%2B3twgxdGrsu%2FYYOftTvit2kPdSCGaHT3Yafl9MjdjtwQ86xC564e%2BxCGR9DNu4D9zVkwxa8P%2FTGqpYfQxRdysZDFHsdZfwLcJu1HF1Ym5DJTeU0gY03JohwQfbGKNALe01vuuwsO4zZAuHmeyPn%2BxumvB8Js8s5INc8OogU7YghFCLDo1t4XMukr4AY2c14ExGjNRx7dv9YSAxYsJ%2B1o3Kd7sQh47Ig36m41YWQkCceg3FtCCk5ICSIaDvHuiQdfDsDqRSU8YZPt%2BKUg7afoJRZW0xQfRdS8pE3Q6yvS5cqCZg4m%2BCZTtMRAQp20Hyz%2FlyqxEfqDMvRoUsF%2FFGI8MWoMx7Q4oLsDWgTH9kzDF%2BH1hck%2FTHpdkaoGXZM7cWajQOmz5CPYqwurblZVJeH9FmEWGOn1iZc%2BkyDr%2FFME4avvammsYf0mQZfh77eOFz6DK2EMUcvVp9F9HoY24qWUzgFb7ixreOeqF9cjr1hCjzJZ%2By69BvCXQ%2BDDWY0M7W8mOPDBfW4CrHDoNI1elEH5pLhBIfNHi8%2B74kWR8FQgm53RYtPwuXR8JK33ta8WRzZTjzk0bTqu1xqHC6Phtcamy%2BTx0Nke%2F7VtAOP5nyhPK6%2Bw8HBNNyVQ%2FGxEakxfO0NbcGZ8cr6YorAJXwD3qPkGB1oukmJTfh6GAKhVd8lfMMNgUjw3JkpfBPsRFuEr4chEFr1XcI33KFbcizwpjO1iL0Qe0HRUw%2BHbrj6LukZIDlCJMZRtKjxkhStIAdB0SxjoB4RvTxvxjbzvQLrqOYqZXpuUPT2kTYeNpPXeEegF3H02fy7w7P3GeRd6vQL5KmPq%2FSksSEibI5Yl3DyS8by%2BxZurAqvHlrJrqo%2BZG5FjVfn3kSNa5blchspAhtnjwf%2Boy8iWGvPIA4HTPAsYG%2F4WCCksTthb0UnNxzeuxMumWBYWRAiF4Hmj4y9Ya0ge97wzENvGDOJLr1h3oN4P7ETwd4zLuRhL%2BKW1754%2B4efiE5bnvzbvHJHioy%2FLilUjq6tn3vGsnU09XmxqU08o2y86pJ73I625ZoHTCa%2FZ3hONuBoTtDiFgVze3Ft%2BwZ6NcZN1Kw1ShBfrDFqbcg0zgAXhN3%2BHrXrY%2FeMIuFcdkf1hm5%2BzZ28AywnAvFwKj9BewTAyN%2BJPDxcc4LlEU1cCsTeopO6g6hPRPegeovXjNXOHT%2FeX%2BnedVQGGbX8lncnzePF3AW82yRQQqfPPSN84IJ63DN4aM%2B9a%2FgL3AJin17hAY4rPMh8PQJCmcOLEVha12iIiAR7ovb8%2FWhob1lPbQQUIEDvZyhdvtvF9AthukDMRIYuZAJ7TtYDBIv%2Fz3AC7755XYm%2FCrsqs9W2vFqTNGfrBVfJ1WNWlOz%2FqSTkGwp%2BzPL8E82pGKTzf9Eayo%2BERkG%2FEbiypVte%2BI3oQzP%2B711%2FiamsO1pmirZ%2FoIzRTSPDdc4fL2YB6O6X2tOZn%2B7%2FJ6xS1f6P1%2BLbHw%3D%3D%3C%2Fdiagram%3E%3C%2Fmxfile%3E" style="background-color: rgb(255, 255, 255);"><defs/>
<g transform="translate(0.5,0.5)">
<rect x="351" y="11" width="30" height="30" rx="4.5" ry="4.5" fill="#ffffff" stroke="#000000" pointer-events="none"/>
<path d="M 335.5 56.5 L 346.5 45.5" fill="none" stroke="#000000" stroke-miterlimit="10" pointer-events="none"/>
<path d="M 331.79 60.21 L 334.27 52.78 L 335.5 56.5 L 339.22 57.73 Z" fill="#000000" stroke="#000000" stroke-miterlimit="10" pointer-events="none"/>
<path d="M 350.21 41.79 L 347.73 49.22 L 346.5 45.5 L 342.78 44.27 Z" fill="#000000" stroke="#000000" stroke-miterlimit="10" pointer-events="none"/>
<rect x="301" y="61" width="30" height="30" rx="4.5" ry="4.5" fill="#ffffff" stroke="#000000" pointer-events="none"/>
<path d="M 277.37 76 L 294.63 76" fill="none" stroke="#000000" stroke-miterlimit="10" pointer-events="none"/>
<path d="M 272.12 76 L 279.12 72.5 L 277.37 76 L 279.12 79.5 Z" fill="#000000" stroke="#000000" stroke-miterlimit="10" pointer-events="none"/>
<path d="M 299.88 76 L 292.88 79.5 L 294.63 76 L 292.88 72.5 Z" fill="#000000" stroke="#000000" stroke-miterlimit="10" pointer-events="none"/>
<rect x="241" y="61" width="30" height="30" rx="4.5" ry="4.5" fill="#ffffff" stroke="#000000" pointer-events="none"/>
<path d="M 217.37 76 L 234.63 76" fill="none" stroke="#000000" stroke-miterlimit="10" pointer-events="none"/>
<path d="M 212.12 76 L 219.12 72.5 L 217.37 76 L 219.12 79.5 Z" fill="#000000" stroke="#000000" stroke-miterlimit="10" pointer-events="none"/>
<path d="M 239.88 76 L 232.88 79.5 L 234.63 76 L 232.88 72.5 Z" fill="#000000" stroke="#000000" stroke-miterlimit="10" pointer-events="none"/>
<rect x="181" y="61" width="30" height="30" rx="4.5" ry="4.5" fill="#ffffff" stroke="#000000" pointer-events="none"/>
<path d="M 196 54.63 L 196 47.37" fill="none" stroke="#000000" stroke-miterlimit="10" pointer-events="none"/>
<path d="M 196 59.88 L 192.5 52.88 L 196 54.63 L 199.5 52.88 Z" fill="#000000" stroke="#000000" stroke-miterlimit="10" pointer-events="none"/>
<path d="M 196 42.12 L 199.5 49.12 L 196 47.37 L 192.5 49.12 Z" fill="#000000" stroke="#000000" stroke-miterlimit="10" pointer-events="none"/>
<rect x="181" y="11" width="30" height="30" rx="4.5" ry="4.5" fill="#ffffff" stroke="#000000" pointer-events="none"/>
<path d="M 165.5 106.5 L 176.5 95.5" fill="none" stroke="#000000" stroke-miterlimit="10" pointer-events="none"/>
<path d="M 161.79 110.21 L 164.27 102.78 L 165.5 106.5 L 169.22 107.73 Z" fill="#000000" stroke="#000000" stroke-miterlimit="10" pointer-events="none"/>
<path d="M 180.21 91.79 L 177.73 99.22 L 176.5 95.5 L 172.78 94.27 Z" fill="#000000" stroke="#000000" stroke-miterlimit="10" pointer-events="none"/>
<rect x="134" y="111" width="30" height="30" rx="4.5" ry="4.5" fill="#ffffff" stroke="#000000" pointer-events="none"/>
<path d="M 118.5 95.5 L 129.5 106.5" fill="none" stroke="#000000" stroke-miterlimit="10" pointer-events="none"/>
<path d="M 114.79 91.79 L 122.22 94.27 L 118.5 95.5 L 117.27 99.22 Z" fill="#000000" stroke="#000000" stroke-miterlimit="10" pointer-events="none"/>
<path d="M 133.21 110.21 L 125.78 107.73 L 129.5 106.5 L 130.73 102.78 Z" fill="#000000" stroke="#000000" stroke-miterlimit="10" pointer-events="none"/>
<rect x="91" y="61" width="30" height="30" rx="4.5" ry="4.5" fill="#ffffff" stroke="#000000" pointer-events="none"/>
<path d="M 151 104.63 L 151 97.37" fill="none" stroke="#000000" stroke-miterlimit="10" pointer-events="none"/>
<path d="M 151 109.88 L 147.5 102.88 L 151 104.63 L 154.5 102.88 Z" fill="#000000" stroke="#000000" stroke-miterlimit="10" pointer-events="none"/>
<path d="M 151 92.12 L 154.5 99.12 L 151 97.37 L 147.5 99.12 Z" fill="#000000" stroke="#000000" stroke-miterlimit="10" pointer-events="none"/>
<rect x="134" y="61" width="30" height="30" rx="4.5" ry="4.5" fill="#ffffff" stroke="#000000" pointer-events="none"/>
<path d="M 149 54.63 L 149 47.37" fill="none" stroke="#000000" stroke-miterlimit="10" pointer-events="none"/>
<path d="M 149 59.88 L 145.5 52.88 L 149 54.63 L 152.5 52.88 Z" fill="#000000" stroke="#000000" stroke-miterlimit="10" pointer-events="none"/>
<path d="M 149 42.12 L 152.5 49.12 L 149 47.37 L 145.5 49.12 Z" fill="#000000" stroke="#000000" stroke-miterlimit="10" pointer-events="none"/>
<rect x="134" y="11" width="30" height="30" rx="4.5" ry="4.5" fill="#ffffff" stroke="#000000" pointer-events="none"/>
<path d="M 112.37 25 L 129.63 25" fill="none" stroke="#000000" stroke-miterlimit="10" pointer-events="none"/>
<path d="M 107.12 25 L 114.12 21.5 L 112.37 25 L 114.12 28.5 Z" fill="#000000" stroke="#000000" stroke-miterlimit="10" pointer-events="none"/>
<path d="M 134.88 25 L 127.88 28.5 L 129.63 25 L 127.88 21.5 Z" fill="#000000" stroke="#000000" stroke-miterlimit="10" pointer-events="none"/>
<rect x="76" y="11" width="30" height="30" rx="4.5" ry="4.5" fill="#ffffff" stroke="#000000" pointer-events="none"/>
<path d="M 165.5 145.5 L 176.5 156.5" fill="none" stroke="#000000" stroke-miterlimit="10" pointer-events="none"/>
<path d="M 161.79 141.79 L 169.22 144.27 L 165.5 145.5 L 164.27 149.22 Z" fill="#000000" stroke="#000000" stroke-miterlimit="10" pointer-events="none"/>
<path d="M 180.21 160.21 L 172.78 157.73 L 176.5 156.5 L 177.73 152.78 Z" fill="#000000" stroke="#000000" stroke-miterlimit="10" pointer-events="none"/>
<path d="M 118.5 156.5 L 129.5 145.5" fill="none" stroke="#000000" stroke-miterlimit="10" pointer-events="none"/>
<path d="M 114.79 160.21 L 117.27 152.78 L 118.5 156.5 L 122.22 157.73 Z" fill="#000000" stroke="#000000" stroke-miterlimit="10" pointer-events="none"/>
<path d="M 133.21 141.79 L 130.73 149.22 L 129.5 145.5 L 125.78 144.27 Z" fill="#000000" stroke="#000000" stroke-miterlimit="10" pointer-events="none"/>
<rect x="181" y="161" width="30" height="30" rx="4.5" ry="4.5" fill="#ffffff" stroke="#000000" pointer-events="none"/>
<path d="M 195 204.63 L 195 197.37" fill="none" stroke="#000000" stroke-miterlimit="10" pointer-events="none"/>
<path d="M 195 209.88 L 191.5 202.88 L 195 204.63 L 198.5 202.88 Z" fill="#000000" stroke="#000000" stroke-miterlimit="10" pointer-events="none"/>
<path d="M 195 192.12 L 198.5 199.12 L 195 197.37 L 191.5 199.12 Z" fill="#000000" stroke="#000000" stroke-miterlimit="10" pointer-events="none"/>
<rect x="181" y="211" width="30" height="30" rx="4.5" ry="4.5" fill="#ffffff" stroke="#000000" pointer-events="none"/>
<path d="M 196 254.63 L 196 247.37" fill="none" stroke="#000000" stroke-miterlimit="10" pointer-events="none"/>
<path d="M 196 259.88 L 192.5 252.88 L 196 254.63 L 199.5 252.88 Z" fill="#000000" stroke="#000000" stroke-miterlimit="10" pointer-events="none"/>
<path d="M 196 242.12 L 199.5 249.12 L 196 247.37 L 192.5 249.12 Z" fill="#000000" stroke="#000000" stroke-miterlimit="10" pointer-events="none"/>
<rect x="181" y="261" width="30" height="30" rx="4.5" ry="4.5" fill="#ffffff" stroke="#000000" pointer-events="none"/>
<path d="M 176 301 L 184 291 L 208 291 L 216 301 Z" fill="#ffffff" stroke="#000000" stroke-miterlimit="10" pointer-events="none"/>
<path d="M 346 11 L 354 1 L 378 1 L 386 11 Z" fill="#ffffff" stroke="#000000" stroke-miterlimit="10" transform="rotate(180,366,6)" pointer-events="none"/>
<rect x="91" y="161" width="30" height="30" rx="4.5" ry="4.5" fill="#ffffff" stroke="#000000" pointer-events="none"/>
<path d="M 125.5 195.5 L 136.5 206.5" fill="none" stroke="#000000" stroke-miterlimit="10" pointer-events="none"/>
<path d="M 121.79 191.79 L 129.22 194.27 L 125.5 195.5 L 124.27 199.22 Z" fill="#000000" stroke="#000000" stroke-miterlimit="10" pointer-events="none"/>
<path d="M 140.21 210.21 L 132.78 207.73 L 136.5 206.5 L 137.73 202.78 Z" fill="#000000" stroke="#000000" stroke-miterlimit="10" pointer-events="none"/>
<rect x="121" y="211" width="30" height="30" rx="4.5" ry="4.5" fill="#ffffff" stroke="#000000" pointer-events="none"/>
<path d="M 141 254.63 L 141 247.37" fill="none" stroke="#000000" stroke-miterlimit="10" pointer-events="none"/>
<path d="M 141 259.88 L 137.5 252.88 L 141 254.63 L 144.5 252.88 Z" fill="#000000" stroke="#000000" stroke-miterlimit="10" pointer-events="none"/>
<path d="M 141 242.12 L 144.5 249.12 L 141 247.37 L 137.5 249.12 Z" fill="#000000" stroke="#000000" stroke-miterlimit="10" pointer-events="none"/>
<rect x="121" y="261" width="30" height="30" rx="4.5" ry="4.5" fill="#ffffff" stroke="#000000" pointer-events="none"/>
<path d="M 157.37 276 L 174.63 276" fill="none" stroke="#000000" stroke-miterlimit="10" pointer-events="none"/>
<path d="M 152.12 276 L 159.12 272.5 L 157.37 276 L 159.12 279.5 Z" fill="#000000" stroke="#000000" stroke-miterlimit="10" pointer-events="none"/>
<path d="M 179.88 276 L 172.88 279.5 L 174.63 276 L 172.88 272.5 Z" fill="#000000" stroke="#000000" stroke-miterlimit="10" pointer-events="none"/>
<path d="M 97.37 276 L 114.63 276" fill="none" stroke="#000000" stroke-miterlimit="10" pointer-events="none"/>
<path d="M 92.12 276 L 99.12 272.5 L 97.37 276 L 99.12 279.5 Z" fill="#000000" stroke="#000000" stroke-miterlimit="10" pointer-events="none"/>
<path d="M 119.88 276 L 112.88 279.5 L 114.63 276 L 112.88 272.5 Z" fill="#000000" stroke="#000000" stroke-miterlimit="10" pointer-events="none"/>
<rect x="61" y="261" width="30" height="30" rx="4.5" ry="4.5" fill="#ffffff" stroke="#000000" pointer-events="none"/>
<path d="M 97.37 225 L 114.63 225" fill="none" stroke="#000000" stroke-miterlimit="10" pointer-events="none"/>
<path d="M 92.12 225 L 99.12 221.5 L 97.37 225 L 99.12 228.5 Z" fill="#000000" stroke="#000000" stroke-miterlimit="10" pointer-events="none"/>
<path d="M 119.88 225 L 112.88 228.5 L 114.63 225 L 112.88 221.5 Z" fill="#000000" stroke="#000000" stroke-miterlimit="10" pointer-events="none"/>
<rect x="61" y="211" width="30" height="30" rx="4.5" ry="4.5" fill="#ffffff" stroke="#000000" pointer-events="none"/>
<path d="M 37.37 225 L 54.63 225" fill="none" stroke="#000000" stroke-miterlimit="10" pointer-events="none"/>
<path d="M 32.12 225 L 39.12 221.5 L 37.37 225 L 39.12 228.5 Z" fill="#000000" stroke="#000000" stroke-miterlimit="10" pointer-events="none"/>
<path d="M 59.88 225 L 52.88 228.5 L 54.63 225 L 52.88 221.5 Z" fill="#000000" stroke="#000000" stroke-miterlimit="10" pointer-events="none"/>
<rect x="1" y="211" width="30" height="30" rx="4.5" ry="4.5" fill="#ffffff" stroke="#000000" pointer-events="none"/>
<path d="M 16 254.63 L 16 247.37" fill="none" stroke="#000000" stroke-miterlimit="10" pointer-events="none"/>
<path d="M 16 259.88 L 12.5 252.88 L 16 254.63 L 19.5 252.88 Z" fill="#000000" stroke="#000000" stroke-miterlimit="10" pointer-events="none"/>
<path d="M 16 242.12 L 19.5 249.12 L 16 247.37 L 12.5 249.12 Z" fill="#000000" stroke="#000000" stroke-miterlimit="10" pointer-events="none"/>
<rect x="1" y="261" width="30" height="30" rx="4.5" ry="4.5" fill="#ffffff" stroke="#000000" pointer-events="none"/>
<path d="M 67.37 175 L 84.63 175" fill="none" stroke="#000000" stroke-miterlimit="10" pointer-events="none"/>
<path d="M 62.12 175 L 69.12 171.5 L 67.37 175 L 69.12 178.5 Z" fill="#000000" stroke="#000000" stroke-miterlimit="10" pointer-events="none"/>
<path d="M 89.88 175 L 82.88 178.5 L 84.63 175 L 82.88 171.5 Z" fill="#000000" stroke="#000000" stroke-miterlimit="10" pointer-events="none"/>
<rect x="31" y="161" width="30" height="30" rx="4.5" ry="4.5" fill="#ffffff" stroke="#000000" pointer-events="none"/>
<path d="M 6 181 L 14 171 L 38 171 L 46 181 Z" fill="#ffffff" stroke="#000000" stroke-miterlimit="10" transform="rotate(90,26,176)" pointer-events="none"/>
<path d="M 217.37 276 L 234.63 276" fill="none" stroke="#000000" stroke-miterlimit="10" pointer-events="none"/>
<path d="M 212.12 276 L 219.12 272.5 L 217.37 276 L 219.12 279.5 Z" fill="#000000" stroke="#000000" stroke-miterlimit="10" pointer-events="none"/>
<path d="M 239.88 276 L 232.88 279.5 L 234.63 276 L 232.88 272.5 Z" fill="#000000" stroke="#000000" stroke-miterlimit="10" pointer-events="none"/>
<rect x="241" y="261" width="30" height="30" rx="4.5" ry="4.5" fill="#ffffff" stroke="#000000" pointer-events="none"/>
<path d="M 275.5 256.5 L 286.5 245.5" fill="none" stroke="#000000" stroke-miterlimit="10" pointer-events="none"/>
<path d="M 271.79 260.21 L 274.27 252.78 L 275.5 256.5 L 279.22 257.73 Z" fill="#000000" stroke="#000000" stroke-miterlimit="10" pointer-events="none"/>
<path d="M 290.21 241.79 L 287.73 249.22 L 286.5 245.5 L 282.78 244.27 Z" fill="#000000" stroke="#000000" stroke-miterlimit="10" pointer-events="none"/>
<rect x="291" y="211" width="30" height="30" rx="4.5" ry="4.5" fill="#ffffff" stroke="#000000" pointer-events="none"/>
<path d="M 267.37 225 L 284.63 225" fill="none" stroke="#000000" stroke-miterlimit="10" pointer-events="none"/>
<path d="M 262.12 225 L 269.12 221.5 L 267.37 225 L 269.12 228.5 Z" fill="#000000" stroke="#000000" stroke-miterlimit="10" pointer-events="none"/>
<path d="M 289.88 225 L 282.88 228.5 L 284.63 225 L 282.88 221.5 Z" fill="#000000" stroke="#000000" stroke-miterlimit="10" pointer-events="none"/>
<rect x="231" y="211" width="30" height="30" rx="4.5" ry="4.5" fill="#ffffff" stroke="#000000" pointer-events="none"/>
<path d="M 327.37 225 L 344.63 225" fill="none" stroke="#000000" stroke-miterlimit="10" pointer-events="none"/>
<path d="M 322.12 225 L 329.12 221.5 L 327.37 225 L 329.12 228.5 Z" fill="#000000" stroke="#000000" stroke-miterlimit="10" pointer-events="none"/>
<path d="M 349.88 225 L 342.88 228.5 L 344.63 225 L 342.88 221.5 Z" fill="#000000" stroke="#000000" stroke-miterlimit="10" pointer-events="none"/>
<rect x="351" y="211" width="30" height="30" rx="4.5" ry="4.5" fill="#ffffff" stroke="#000000" pointer-events="none"/>
<path d="M 387.37 225 L 404.63 225" fill="none" stroke="#000000" stroke-miterlimit="10" pointer-events="none"/>
<path d="M 382.12 225 L 389.12 221.5 L 387.37 225 L 389.12 228.5 Z" fill="#000000" stroke="#000000" stroke-miterlimit="10" pointer-events="none"/>
<path d="M 409.88 225 L 402.88 228.5 L 404.63 225 L 402.88 221.5 Z" fill="#000000" stroke="#000000" stroke-miterlimit="10" pointer-events="none"/>
<rect x="411" y="211" width="30" height="30" rx="4.5" ry="4.5" fill="#ffffff" stroke="#000000" pointer-events="none"/>
<path d="M 445.5 206.5 L 456.5 195.5" fill="none" stroke="#000000" stroke-miterlimit="10" pointer-events="none"/>
<path d="M 441.79 210.21 L 444.27 202.78 L 445.5 206.5 L 449.22 207.73 Z" fill="#000000" stroke="#000000" stroke-miterlimit="10" pointer-events="none"/>
<path d="M 460.21 191.79 L 457.73 199.22 L 456.5 195.5 L 452.78 194.27 Z" fill="#000000" stroke="#000000" stroke-miterlimit="10" pointer-events="none"/>
<rect x="461" y="161" width="30" height="30" rx="4.5" ry="4.5" fill="#ffffff" stroke="#000000" pointer-events="none"/>
<path d="M 476 154.63 L 476 147.37" fill="none" stroke="#000000" stroke-miterlimit="10" pointer-events="none"/>
<path d="M 476 159.88 L 472.5 152.88 L 476 154.63 L 479.5 152.88 Z" fill="#000000" stroke="#000000" stroke-miterlimit="10" pointer-events="none"/>
<path d="M 476 142.12 L 479.5 149.12 L 476 147.37 L 472.5 149.12 Z" fill="#000000" stroke="#000000" stroke-miterlimit="10" pointer-events="none"/>
<rect x="461" y="111" width="30" height="30" rx="4.5" ry="4.5" fill="#ffffff" stroke="#000000" pointer-events="none"/>
<path d="M 476 131 L 484 121 L 508 121 L 516 131 Z" fill="#ffffff" stroke="#000000" stroke-miterlimit="10" transform="rotate(-90,496,126)" pointer-events="none"/>
<path d="M 445.5 245.5 L 456.5 256.5" fill="none" stroke="#000000" stroke-miterlimit="10" pointer-events="none"/>
<path d="M 441.79 241.79 L 449.22 244.27 L 445.5 245.5 L 444.27 249.22 Z" fill="#000000" stroke="#000000" stroke-miterlimit="10" pointer-events="none"/>
<path d="M 460.21 260.21 L 452.78 257.73 L 456.5 256.5 L 457.73 252.78 Z" fill="#000000" stroke="#000000" stroke-miterlimit="10" pointer-events="none"/>
<rect x="461" y="261" width="30" height="30" rx="4.5" ry="4.5" fill="#ffffff" stroke="#000000" pointer-events="none"/>
<path d="M 306 204.63 L 306 197.37" fill="none" stroke="#000000" stroke-miterlimit="10" pointer-events="none"/>
<path d="M 306 209.88 L 302.5 202.88 L 306 204.63 L 309.5 202.88 Z" fill="#000000" stroke="#000000" stroke-miterlimit="10" pointer-events="none"/>
<path d="M 306 192.12 L 309.5 199.12 L 306 197.37 L 302.5 199.12 Z" fill="#000000" stroke="#000000" stroke-miterlimit="10" pointer-events="none"/>
<rect x="291" y="161" width="30" height="30" rx="4.5" ry="4.5" fill="#ffffff" stroke="#000000" pointer-events="none"/>
<rect x="241" y="116" width="30" height="30" rx="4.5" ry="4.5" fill="#ffffff" stroke="#000000" pointer-events="none"/>
<path d="M 211.85 158.49 L 235.15 148.51" fill="none" stroke="#000000" stroke-miterlimit="10" pointer-events="none"/>
<path d="M 207.03 160.56 L 212.08 154.59 L 211.85 158.49 L 214.84 161.02 Z" fill="#000000" stroke="#000000" stroke-miterlimit="10" pointer-events="none"/>
<path d="M 239.97 146.44 L 234.92 152.41 L 235.15 148.51 L 232.16 145.98 Z" fill="#000000" stroke="#000000" stroke-miterlimit="10" pointer-events="none"/>
<path d="M 286.5 156.5 L 275.5 145.5" fill="none" stroke="#000000" stroke-miterlimit="10" pointer-events="none"/>
<path d="M 290.21 160.21 L 282.78 157.73 L 286.5 156.5 L 287.73 152.78 Z" fill="#000000" stroke="#000000" stroke-miterlimit="10" pointer-events="none"/>
<path d="M 271.79 141.79 L 279.22 144.27 L 275.5 145.5 L 274.27 149.22 Z" fill="#000000" stroke="#000000" stroke-miterlimit="10" pointer-events="none"/>
<path d="M 256 109.63 L 256 97.37" fill="none" stroke="#000000" stroke-miterlimit="10" pointer-events="none"/>
<path d="M 256 114.88 L 252.5 107.88 L 256 109.63 L 259.5 107.88 Z" fill="#000000" stroke="#000000" stroke-miterlimit="10" pointer-events="none"/>
<path d="M 256 92.12 L 259.5 99.12 L 256 97.37 L 252.5 99.12 Z" fill="#000000" stroke="#000000" stroke-miterlimit="10" pointer-events="none"/>
<rect x="301" y="116" width="30" height="30" rx="4.5" ry="4.5" fill="#ffffff" stroke="#000000" pointer-events="none"/>
<rect x="356" y="116" width="30" height="30" rx="4.5" ry="4.5" fill="#ffffff" stroke="#000000" pointer-events="none"/>
<rect x="396" y="76" width="30" height="30" rx="4.5" ry="4.5" fill="#ffffff" stroke="#000000" pointer-events="none"/>
<rect x="396" y="156" width="30" height="30" rx="4.5" ry="4.5" fill="#ffffff" stroke="#000000" pointer-events="none"/>
<path d="M 349.63 131 L 337.37 131" fill="none" stroke="#000000" stroke-miterlimit="10" pointer-events="none"/>
<path d="M 354.88 131 L 347.88 134.5 L 349.63 131 L 347.88 127.5 Z" fill="#000000" stroke="#000000" stroke-miterlimit="10" pointer-events="none"/>
<path d="M 332.12 131 L 339.12 127.5 L 337.37 131 L 339.12 134.5 Z" fill="#000000" stroke="#000000" stroke-miterlimit="10" pointer-events="none"/>
<path d="M 390.5 119.5 L 399.5 110.5" fill="none" stroke="#000000" stroke-miterlimit="10" pointer-events="none"/>
<path d="M 386.79 123.21 L 389.27 115.78 L 390.5 119.5 L 394.22 120.73 Z" fill="#000000" stroke="#000000" stroke-miterlimit="10" pointer-events="none"/>
<path d="M 403.21 106.79 L 400.73 114.22 L 399.5 110.5 L 395.78 109.27 Z" fill="#000000" stroke="#000000" stroke-miterlimit="10" pointer-events="none"/>
<path d="M 398.43 152.91 L 391.57 149.09" fill="none" stroke="#000000" stroke-miterlimit="10" pointer-events="none"/>
<path d="M 403.02 155.46 L 395.2 155.12 L 398.43 152.91 L 398.6 149 Z" fill="#000000" stroke="#000000" stroke-miterlimit="10" pointer-events="none"/>
<path d="M 386.98 146.54 L 394.8 146.88 L 391.57 149.09 L 391.4 153 Z" fill="#000000" stroke="#000000" stroke-miterlimit="10" pointer-events="none"/>
<path d="M 100.77 61 L 111.19 61 L 111.19 70.82 L 121 70.82 L 121 81.2 L 111.27 81.2 L 111.27 91 L 100.81 91 L 100.81 81.2 L 91 81.2 L 91 70.82 L 100.77 70.82 Z" fill="#000000" stroke="none" pointer-events="none"/></g>
</svg>